<svg viewBox="0 0 395.52 247.2" height="247.2" width="395.52">
                            <g transform="matrix(1,0,0,1,39.55199999999999,65.51351621541207)">
                                <svg viewBox="0 0 316.416 116.17296756917585" height="116.17296756917585"
                                     width="316.416">
                                    <g>
                                        <svg viewBox="0 0 316.416 116.17296756917585" height="116.17296756917585"
                                             width="316.416">
                                            <g>
                                                <svg viewBox="0 0 316.416 116.17296756917585"
                                                     height="116.17296756917585" width="316.416">
                                                    <g>
                                                        <svg viewBox="0 0 316.416 116.17296756917585"
                                                             height="116.17296756917585" width="316.416">
                                                            <g id="textblocktransform">
                                                                <svg viewBox="0 0 316.416 116.17296756917585"
                                                                     height="116.17296756917585" width="316.416"
                                                                     id="textblock">
                                                                    <g>
                                                                        <svg viewBox="0 0 316.416 116.17296756917585"
                                                                             height="116.17296756917585"
                                                                             width="316.416">
                                                                            <g transform="matrix(1,0,0,1,0,0)">
                                                                                <svg width="316.416"
                                                                                     viewBox="3.22 -29.59 82.05 30.13"
                                                                                     height="116.17296756917585"
                                                                                     data-palette-color="#f9cc0b">
                                                                                    <path d="M14.99-23.1Q18.33-23.1 21.02-21.58 23.71-20.07 25.23-17.37 26.76-14.67 26.76-11.28L26.76-11.28Q26.76-7.89 25.23-5.19 23.71-2.49 21.02-0.98 18.33 0.54 14.99 0.54L14.99 0.54Q11.65 0.54 8.96-0.98 6.27-2.49 4.75-5.19 3.22-7.89 3.22-11.28L3.22-11.28Q3.22-14.67 4.75-17.37 6.27-20.07 8.96-21.58 11.65-23.1 14.99-23.1L14.99-23.1ZM14.99-19.48Q12.62-19.48 10.83-18.44 9.03-17.41 8.06-15.54 7.08-13.67 7.08-11.28L7.08-11.28Q7.08-8.89 8.06-7.02 9.03-5.15 10.83-4.11 12.62-3.08 14.99-3.08L14.99-3.08Q17.36-3.08 19.15-4.11 20.95-5.15 21.92-7.02 22.9-8.89 22.9-11.28L22.9-11.28Q22.9-13.67 21.92-15.54 20.95-17.41 19.15-18.44 17.36-19.48 14.99-19.48L14.99-19.48ZM53.76-3.32Q54.59-3.32 54.94-2.94 55.3-2.56 55.3-1.66L55.3-1.66Q55.3-0.76 54.94-0.38 54.59 0 53.76 0L53.76 0 37.3 0Q36.47 0 36.12-0.38 35.76-0.76 35.76-1.66L35.76-1.66Q35.76-2.56 36.12-2.94 36.47-3.32 37.3-3.32L37.3-3.32 43.87-3.32 43.87-24.27 37.79-20.48Q37.38-20.24 37.03-20.24L37.03-20.24Q36.25-20.24 35.69-21.24L35.69-21.24Q35.35-21.83 35.35-22.36L35.35-22.36Q35.35-23.19 36.11-23.63L36.11-23.63 45.31-29.3Q45.8-29.59 46.29-29.59L46.29-29.59Q46.82-29.59 47.18-29.24 47.53-28.88 47.53-28.25L47.53-28.25 47.53-3.32 53.76-3.32ZM83.74-3.32Q84.57-3.32 84.92-2.94 85.27-2.56 85.27-1.66L85.27-1.66Q85.27-0.76 84.92-0.38 84.57 0 83.74 0L83.74 0 67.28 0Q66.45 0 66.1-0.38 65.74-0.76 65.74-1.66L65.74-1.66Q65.74-2.56 66.1-2.94 66.45-3.32 67.28-3.32L67.28-3.32 73.85-3.32 73.85-24.27 67.77-20.48Q67.35-20.24 67.01-20.24L67.01-20.24Q66.23-20.24 65.67-21.24L65.67-21.24Q65.33-21.83 65.33-22.36L65.33-22.36Q65.33-23.19 66.08-23.63L66.08-23.63 75.29-29.3Q75.78-29.59 76.26-29.59L76.26-29.59Q76.8-29.59 77.16-29.24 77.51-28.88 77.51-28.25L77.51-28.25 77.51-3.32 83.74-3.32Z"
                                                                                          opacity="1"
                                                                                          transform="matrix(1,0,0,1,0,0)"
                                                                                          fill="#ffffff"
                                                                                          class="wordmark-text-0"
                                                                                          data-fill-palette-color="primary"
                                                                                          id="text-0"></path>
                                                                                </svg>