<svg version="1.0" xmlns="http://www.w3.org/2000/svg"
     width="2000.000000pt" height="2000.000000pt" viewBox="0 0 2000.000000 2000.000000"
     preserveAspectRatio="xMidYMid meet">
    <metadata>
        Created by potrace 1.14, written by Peter Selinger 2001-2017
    </metadata>
    <g transform="translate(0.000000,2000.000000) scale(0.100000,-0.100000)"
       fill="#000000" stroke="none">
        <path d="M18 16233 c-4 -7 -2 -12426 1 -12460 1 -10 2005 -13 9984 -13 l9982
0 0 6240 0 6240 -9982 0 c-5490 0 -9983 -3 -9985 -7z m19437 -6223 c1 -3132
-1 -5701 -3 -5707 -6 -19 -18898 -19 -18904 0 -3 10 -3 11378 1 11400 0 4
4255 6 9453 5 l9453 -3 0 -5695z"/>
        <path d="M10315 12923 c-45 -11 -107 -47 -495 -286 -223 -138 -417 -257 -432
-266 -248 -145 -1012 -626 -1044 -658 -104 -104 -97 -280 17 -448 92 -136 210
-182 333 -130 31 13 253 148 446 270 19 13 73 46 120 75 47 30 114 72 150 95
36 23 97 61 135 84 60 36 242 150 340 212 17 10 33 19 36 19 3 0 5 -916 5
-2035 l1 -2035 -51 0 c-793 0 -1336 -8 -1371 -19 -22 -7 -58 -32 -80 -55 -55
-57 -74 -120 -74 -255 0 -129 25 -206 85 -258 71 -62 -8 -60 1839 -59 l1680 1
56 26 c107 50 141 129 136 313 -4 136 -23 194 -79 241 -74 62 -41 60 -762 62
-363 2 -661 5 -663 6 -1 2 -3 1106 -4 2453 -1 2687 4 2504 -61 2577 -47 53
-97 74 -177 75 -36 0 -75 -2 -86 -5z"/>
        <path d="M16145 12921 c-16 -4 -41 -13 -55 -21 -60 -31 -1786 -1091 -1807
-1109 -7 -6 -16 -11 -21 -11 -21 0 -114 -95 -132 -136 -40 -88 -30 -196 30
-316 67 -133 161 -209 262 -214 61 -2 131 27 252 105 53 33 99 61 101 61 3 0
11 5 18 11 15 12 434 275 462 289 11 5 128 77 259 160 132 83 242 147 245 141
7 -11 6 -4049 -1 -4056 -3 -3 -315 -6 -694 -8 -677 -2 -690 -2 -734 -23 -110
-52 -146 -133 -143 -325 3 -132 45 -224 121 -263 15 -8 52 -19 82 -24 76 -14
3304 -14 3385 -1 69 12 125 40 153 78 68 92 76 329 15 447 -27 53 -85 90 -158
103 -36 6 -263 10 -575 10 -283 0 -564 1 -625 1 l-110 0 0 2458 c0 2354 -1
2459 -18 2505 -36 93 -118 147 -222 146 -33 -1 -73 -4 -90 -8z"/>
        <path d="M4060 11659 c-36 -4 -87 -11 -115 -14 -84 -10 -275 -52 -375 -83
-388 -121 -734 -343 -990 -635 -45 -51 -84 -96 -88 -102 -72 -97 -98 -134
-145 -213 -62 -104 -123 -226 -167 -335 -31 -79 -96 -288 -105 -340 -4 -17
-10 -50 -15 -72 -4 -22 -11 -62 -15 -90 -3 -27 -8 -57 -10 -65 -8 -32 -18
-201 -18 -325 -2 -374 60 -692 194 -998 39 -89 105 -216 138 -267 9 -14 21
-32 26 -41 154 -246 368 -463 626 -634 96 -64 358 -203 393 -209 6 -1 43 -14
81 -29 107 -40 270 -83 395 -103 14 -2 39 -6 55 -9 17 -2 53 -7 80 -10 28 -3
66 -8 85 -10 41 -5 380 -5 426 0 99 10 152 16 174 20 14 3 39 7 55 10 374 61
754 233 1047 473 141 116 249 229 355 372 61 84 84 119 130 195 47 78 158 318
187 406 55 162 76 249 101 414 41 262 38 648 -5 845 -5 25 -12 61 -15 80 -33
213 -156 521 -303 758 -231 372 -599 679 -1016 846 -214 87 -347 120 -636 162
-68 9 -456 12 -530 3z m425 -703 c78 -8 97 -11 174 -25 82 -16 233 -60 245
-72 6 -5 16 -9 24 -9 24 0 192 -88 282 -148 105 -70 279 -242 347 -342 194
-290 287 -610 287 -995 0 -92 -10 -246 -18 -291 -4 -20 -19 -105 -21 -114 -12
-77 -77 -265 -127 -370 -201 -420 -553 -690 -1021 -785 -111 -22 -192 -29
-342 -29 -144 -1 -257 8 -328 24 -26 5 -64 13 -85 16 -73 11 -246 75 -350 129
-191 98 -345 229 -471 400 -72 98 -77 107 -131 210 -161 305 -222 742 -159
1130 75 462 307 829 664 1052 193 121 448 203 682 219 48 4 89 7 90 8 5 4 203
-2 258 -8z"/>
    </g>
</svg>